# Apple ModelIO OBJ File: bunny-norms-reference
mtllib bunny-norms-reference.mtl
g 
v -0.59119 0.739758 -0.675609
v -0.733708 0.753358 -0.531002
v -0.613852 0.506353 0.053107
v 0.32188 0.236632 0.232449
v -0.305963 0.171522 0.111922
v 0.246665 0.124609 0.448233
v -0.873233 0.403492 0.374129
v -0.761963 0.177828 0.680876
v -0.562516 0.531187 0.367227
v 0.275973 -0.510433 0.686344
v -0.086957 -0.226999 0.674457
v -0.326108 0.087352 0.343619
v 0.847356 -0.671364 -0.029567
v 0.759069 -0.388663 0.044215
v 0.802544 -0.62528 0.379072
v -0.04348 -0.704178 0.591945
v 0.376342 -0.897789 0.472215
v -0.233038 -0.208097 0.521603
v -0.747433 -0.285599 0.505507
v -0.203951 -0.625342 0.448701
v -0.435481 -0.905056 0.439065
v -0.417271 -0.628335 0.360382
v -0.70232 -0.050322 0.462497
v 0.638676 -0.604554 0.385886
v 0.542044 -0.891531 0.263767
v -0.939707 0.051524 0.51163
v -0.925504 0.096686 0.040107
v 0.201068 0.174229 -0.127825
v 0.516448 0.09236 -0.026034
v -0.341934 -0.890632 -0.345768
v -0.705349 -0.920624 -0.058476
v -0.282389 -0.694124 -0.125739
v 0.666075 -0.13091 0.353566
v 0.036367 0.616609 -0.17645
v -0.003778 0.841721 -0.317179
v -0.44186 0.506952 0.139294
v -0.148611 -0.901495 0.644548
v 0.422921 -0.206946 -0.295346
v 0.414692 -0.912902 -0.007099
v -0.432526 0.379488 0.010753
v -0.131532 0.86175 -0.108644
v -0.6076 0.350633 -0.107384
v -0.762706 0.463577 -0.033866
v 0.34284 -0.904459 -0.230166
v 0.520906 -0.583596 -0.262305
v -0.522532 -0.654053 0.018296
v -0.610071 -0.913905 0.246509
v -0.622226 0.516861 -0.665538
v -0.732598 -0.340834 -0.192824
v -0.344142 -0.35619 -0.25861
v -0.118255 -0.389531 -0.500596
v -0.118676 -0.751513 -0.333591
v -0.893256 -0.119139 0.147305
v -0.782669 -0.522354 0.168517
v -0.34152 -0.124505 -0.285833
v -0.467591 0.11434 -0.122819
v 0.008759 -0.863834 0.080429
v 0.063188 -0.848954 0.44519
v -0.332839 -0.920787 0.078783
vn 0.873852 0.425923 -0.23446
vn -0.769007 0.631766 -0.0974631
vn -0.0570381 0.989567 -0.132298
vn 0.295308 0.943592 0.149756
vn 0.376876 0.925923 0.0251202
vn 0.0402912 0.70619 0.706875
vn -0.771786 0.591939 0.232282
vn -0.0466418 0.0306416 0.998442
vn 0.412223 0.829019 0.377889
vn 0.314504 -0.0437758 0.948246
vn -0.328356 0.219312 0.918741
vn 0.365913 0.459593 0.809248
vn 0.826496 -0.431196 -0.361903
vn 0.891548 0.408601 -0.195417
vn 0.713867 -0.00625772 0.700253
vn -0.374228 -0.0114825 0.927266
vn 0.256496 -0.796104 0.548113
vn -0.336018 0.231001 0.913088
vn -0.533414 -0.257495 0.805708
vn -0.417051 -0.0621251 0.906757
vn -0.396471 -0.595902 0.698363
vn -0.667705 -0.263744 0.696139
vn -0.399177 -0.236072 0.885962
vn 0.606784 -0.0684606 0.791913
vn 0.34266 -0.888049 0.306516
vn -0.830784 -0.385671 0.401318
vn -0.835507 0.0114118 -0.549362
vn 0.0965084 0.814803 -0.571648
vn 0.68094 0.644812 -0.347186
vn -0.21009 -0.619514 -0.756349
vn -0.827422 -0.143769 -0.542866
vn -0.649016 0.181685 -0.738762
vn 0.781137 0.403928 0.476096
vn 0.735357 -0.500705 0.456666
vn 0.0966153 0.0565928 -0.993712
vn 0.589902 0.24802 0.768441
vn -0.116417 -0.754486 0.645909
vn 0.419328 0.372831 -0.827745
vn 0.325185 -0.916449 -0.233185
vn 0.783795 -0.00585853 -0.620992
vn -0.119141 0.821204 0.558059
vn 0.370514 0.00557216 -0.92881
vn -0.869178 0.431725 -0.241129
vn 0.253002 -0.716848 -0.649707
vn 0.58691 -0.161584 -0.793364
vn -0.841043 -0.260588 -0.474068
vn -0.860736 -0.280715 0.424655
vn -0.614122 -0.536995 -0.578351
vn -0.624031 -0.32815 -0.709157
vn -0.486751 -0.333801 -0.807249
vn -0.264297 -0.122666 -0.956609
vn -0.316968 -0.0371033 -0.94771
vn -0.984086 -0.090416 0.152971
vn -0.759996 -0.646358 0.0680249
vn -0.241527 0.333503 -0.911285
vn 0.0997341 0.484102 -0.869309
vn -0.000143797 -0.99945 0.0331502
vn -0.0123052 -0.994257 -0.106305
vn 0.0695323 -0.997576 0.00279204
usemtl material_1
f 1//1 2//2 3//3
f 4//4 5//5 6//6
f 7//7 8//8 9//9
f 10//10 6//6 11//11
f 5//5 12//12 6//6
f 13//13 14//14 15//15
f 16//16 17//17 10//10
f 18//18 19//19 20//20
f 21//21 20//20 22//22
f 18//18 23//23 19//19
f 15//15 24//24 25//25
f 18//18 12//12 23//23
f 6//6 12//12 18//18
f 26//26 7//7 27//27
f 16//16 11//11 18//18
f 28//28 4//4 29//29
f 16//16 10//10 11//11
f 30//30 31//31 32//32
f 12//12 9//9 8//8
f 12//12 8//8 23//23
f 33//33 6//6 10//10
f 34//34 35//35 36//36
f 37//37 16//16 21//21
f 24//24 33//33 10//10
f 38//38 29//29 14//14
f 13//13 25//25 39//39
f 24//24 10//10 17//17
f 37//37 17//17 16//16
f 40//40 34//34 36//36
f 35//35 41//41 36//36
f 1//1 3//3 42//42
f 7//7 43//43 27//27
f 44//44 45//45 39//39
f 17//17 25//25 24//24
f 46//46 47//47 22//22
f 14//14 33//33 24//24
f 48//48 1//1 42//42
f 40//40 9//9 5//5
f 9//9 40//40 36//36
f 25//25 13//13 15//15
f 14//14 24//24 15//15
f 43//43 9//9 3//3
f 3//3 9//9 36//36
f 2//2 43//43 3//3
f 14//14 29//29 33//33
f 43//43 7//7 9//9
f 4//4 6//6 33//33
f 29//29 4//4 33//33
f 5//5 9//9 12//12
f 20//20 21//21 16//16
f 46//46 49//49 50//50
f 22//22 47//47 21//21
f 11//11 6//6 18//18
f 47//47 46//46 31//31
f 42//42 27//27 43//43
f 3//3 36//36 41//41
f 8//8 7//7 26//26
f 48//48 2//2 1//1
f 43//43 2//2 48//48
f 32//32 51//51 52//52
f 30//30 32//32 52//52
f 32//32 50//50 51//51
f 19//19 53//53 54//54
f 41//41 35//35 3//3
f 19//19 23//23 53//53
f 46//46 54//54 49//49
f 46//46 32//32 31//31
f 54//54 53//53 49//49
f 53//53 27//27 49//49
f 50//50 55//55 51//51
f 18//18 20//20 16//16
f 55//55 38//38 51//51
f 3//3 40//40 42//42
f 5//5 28//28 56//56
f 56//56 28//28 55//55
f 40//40 56//56 42//42
f 45//45 38//38 14//14
f 4//4 28//28 5//5
f 29//29 38//38 28//28
f 55//55 27//27 56//56
f 13//13 45//45 14//14
f 27//27 42//42 56//56
f 13//13 39//39 45//45
f 34//34 40//40 35//35
f 44//44 51//51 45//45
f 42//42 43//43 48//48
f 53//53 23//23 27//27
f 51//51 38//38 45//45
f 44//44 52//52 51//51
f 40//40 3//3 35//35
f 44//44 30//30 52//52
f 49//49 55//55 50//50
f 55//55 28//28 38//38
f 49//49 27//27 55//55
f 32//32 46//46 50//50
f 40//40 5//5 56//56
f 23//23 26//26 27//27
f 39//39 57//57 44//44
f 23//23 8//8 26//26
f 58//58 21//21 57//57
f 57//57 17//17 58//58
f 46//46 22//22 54//54
f 22//22 19//19 54//54
f 30//30 59//59 31//31
f 47//47 31//31 59//59
f 22//22 20//20 19//19
f 44//44 57//57 30//30
f 59//59 30//30 57//57
f 57//57 39//39 25//25
f 57//57 25//25 17//17
f 58//58 37//37 21//21
f 58//58 17//17 37//37
f 57//57 21//21 59//59
f 47//47 59//59 21//21
s off
